<?xml version="1.0" standalone="no"?>
<!DOCTYPE svg PUBLIC "-//W3C//DTD SVG 20010904//EN"
 "http://www.w3.org/TR/2001/REC-SVG-20010904/DTD/svg10.dtd">
<svg version="1.0" xmlns="http://www.w3.org/2000/svg"
 width="1280.000000pt" height="922.000000pt" viewBox="0 0 1280.000000 922.000000"
 preserveAspectRatio="xMidYMid meet">

<g transform="translate(0.000000,922.000000) scale(0.100000,-0.100000)"
fill="#000000" stroke="none">
<path d="M8817 7823 c-30 -32 -86 -98 -124 -148 -38 -49 -107 -139 -153 -200
-126 -165 -251 -315 -264 -315 -64 -3 -303 -27 -346 -35 -14 -3 -79 -14 -145
-25 -221 -37 -380 -83 -635 -183 -147 -59 -256 -107 -300 -133 -19 -12 -66
-38 -105 -59 -69 -37 -348 -218 -373 -242 -8 -7 -30 -26 -50 -41 -106 -79
-296 -261 -378 -362 -16 -19 -37 -43 -48 -52 -10 -10 -15 -18 -11 -18 5 0 -2
-12 -16 -27 -15 -17 -2 -10 36 18 433 324 987 559 1625 688 162 33 449 75 456
68 3 -3 -28 -61 -69 -129 -162 -268 -430 -758 -627 -1143 -237 -464 -371 -709
-477 -867 -47 -71 -193 -258 -341 -437 -62 -75 -124 -161 -139 -191 -26 -56
-278 -435 -361 -545 -54 -71 -169 -211 -226 -276 -23 -25 -70 -78 -105 -118
-98 -112 -72 -104 -384 -107 -288 -2 -448 -19 -615 -64 -230 -63 -325 -192
-238 -327 34 -54 63 -79 140 -117 l68 -35 -101 -50 c-256 -129 -534 -214 -781
-240 -88 -9 -377 -8 -386 2 -3 3 47 32 113 64 149 73 479 310 603 433 139 139
274 331 384 548 124 246 150 444 90 701 -30 131 -124 265 -245 346 -70 48
-116 67 -328 131 -15 5 2 26 183 216 66 70 124 124 130 121 5 -3 6 -1 2 6 -4
6 8 30 27 54 242 297 365 730 279 977 -80 230 -274 461 -470 559 -80 41 -184
60 -351 66 -188 7 -192 8 -233 43 -18 16 -41 32 -51 35 -23 8 -56 -24 -64 -63
-3 -16 -10 -33 -17 -38 -6 -5 -74 -30 -151 -56 -174 -59 -279 -108 -569 -270
-365 -204 -527 -311 -664 -441 -41 -38 -78 -72 -83 -73 -15 -6 -206 -220 -269
-301 -32 -42 -70 -89 -85 -106 -52 -58 -124 -177 -156 -258 -29 -73 -33 -96
-37 -206 -3 -93 0 -144 13 -205 20 -97 71 -200 100 -204 19 -3 20 3 21 195 2
229 16 302 85 438 132 257 447 625 683 794 119 86 656 387 849 476 87 40 235
94 241 88 2 -2 0 -19 -4 -36 -4 -18 -22 -93 -40 -167 -43 -185 -104 -394 -150
-515 -91 -242 -287 -656 -460 -971 -44 -80 -80 -147 -80 -150 0 -3 -55 -96
-121 -207 -215 -358 -440 -685 -633 -918 -39 -47 -80 -98 -91 -113 l-20 -28
-35 26 c-19 14 -80 48 -134 77 -377 194 -807 208 -1241 39 -103 -40 -115 -48
-186 -119 -119 -120 -170 -254 -172 -456 -2 -312 169 -653 441 -878 151 -125
236 -174 372 -212 l74 -20 18 -50 c33 -93 71 -100 82 -16 4 31 12 51 19 51 7
0 53 -9 103 -20 142 -33 366 -37 529 -11 196 32 454 104 670 186 191 72 481
195 530 225 68 41 285 130 317 130 19 0 79 -7 134 -15 133 -20 416 -20 569 0
277 37 505 118 820 292 72 40 173 91 225 113 211 92 468 234 642 356 49 34 88
54 105 54 32 0 317 -42 446 -66 l87 -16 0 -102 c0 -204 31 -454 80 -661 39
-162 71 -256 131 -388 28 -62 57 -126 65 -144 l13 -31 -75 -36 c-129 -61 -213
-166 -244 -306 -8 -35 -11 -100 -8 -170 4 -95 10 -128 33 -189 70 -182 276
-293 516 -277 82 5 195 33 252 62 l27 15 0 154 c0 85 3 155 8 155 4 0 36 -11
72 -24 64 -23 65 -24 91 -87 71 -168 230 -265 450 -276 183 -10 329 38 438
142 l58 55 84 1 c46 0 104 4 129 7 45 7 45 7 97 -49 64 -68 183 -130 287 -149
81 -15 250 -8 316 13 185 60 285 164 327 343 l17 74 61 23 c53 21 61 22 67 8
4 -9 7 -113 7 -231 -1 -188 1 -215 15 -218 14 -3 16 23 16 240 l0 243 97 48
97 48 21 -23 c94 -104 276 -308 300 -337 16 -20 61 -70 101 -111 39 -41 83
-87 96 -102 14 -16 30 -28 36 -28 8 0 11 143 11 486 0 268 2 488 3 489 108 86
339 309 429 415 179 212 367 495 487 735 188 377 286 716 338 1172 25 216 22
575 -5 803 -27 215 -74 434 -111 515 -5 11 -21 54 -35 95 -28 78 -213 463
-227 468 -4 2 -8 8 -8 14 0 5 -24 49 -53 96 -30 48 -56 92 -58 97 -8 19 -122
189 -177 264 -277 374 -676 690 -1068 843 -345 136 -644 197 -1131 230 -18 1
-33 4 -33 6 0 21 226 425 280 501 41 57 70 109 70 123 0 30 -58 88 -87 88 -13
0 -43 -23 -76 -57z m66 -1054 c97 -11 221 -29 274 -39 54 -11 104 -18 112 -15
9 3 12 3 8 -2 -4 -4 36 -19 90 -34 371 -100 692 -289 931 -548 45 -49 99 -112
120 -139 20 -28 41 -48 47 -45 5 4 7 3 3 -2 -4 -4 -2 -17 3 -28 9 -16 13 -17
21 -6 8 11 9 10 4 -4 -3 -11 10 -43 36 -85 175 -284 309 -680 368 -1082 112
-765 -40 -1554 -405 -2099 -41 -62 -72 -118 -68 -124 3 -5 1 -7 -4 -4 -6 4
-36 -24 -66 -62 -115 -142 -256 -271 -397 -364 -41 -27 -74 -53 -72 -59 1 -5
-2 -7 -8 -3 -5 3 -35 -8 -67 -26 -146 -82 -336 -154 -497 -190 -390 -87 -807
-72 -1152 40 -124 40 -356 159 -456 233 -206 151 -378 376 -454 590 l-13 37
47 6 c396 50 723 189 1054 446 160 125 286 228 488 398 552 467 600 511 600
553 0 27 -23 48 -53 48 -19 0 -198 -138 -357 -275 -477 -412 -690 -582 -893
-712 -40 -26 -74 -50 -77 -53 -3 -4 -45 -30 -95 -58 -177 -99 -421 -189 -615
-226 -47 -9 -95 -19 -107 -21 -19 -5 -23 2 -36 63 -16 71 -32 203 -36 295 -1
17 -8 30 -18 34 -184 62 -340 160 -465 292 -79 83 -169 212 -210 303 l-17 37
51 63 c27 35 61 86 73 115 21 47 116 192 317 488 106 155 243 385 350 587 211
400 283 533 496 918 287 518 443 768 481 771 236 20 411 17 664 -12z m-4933
-565 c41 -9 99 -27 128 -41 98 -46 221 -182 291 -322 37 -73 53 -172 42 -256
-35 -250 -133 -531 -242 -692 -143 -213 -273 -366 -509 -601 -78 -77 -238
-170 -375 -217 -44 -15 -114 -44 -156 -65 -41 -21 -124 -52 -185 -69 -136 -39
-154 -47 -154 -66 0 -8 14 -22 31 -30 29 -15 38 -14 187 21 194 45 308 87 482
175 265 135 446 156 669 77 142 -51 167 -77 202 -219 25 -100 27 -256 5 -350
-36 -154 -175 -440 -297 -609 -187 -259 -539 -553 -872 -730 -92 -49 -102 -52
-150 -46 -100 11 -159 49 -478 307 -79 64 -260 207 -401 318 -142 111 -258
205 -258 209 0 4 17 25 38 47 21 22 46 52 57 66 11 15 65 82 120 150 122 151
183 235 293 404 47 72 135 207 197 300 100 152 225 359 225 371 0 3 51 98 114
212 264 481 375 729 515 1147 46 140 111 386 126 482 6 35 11 43 33 47 47 8
244 -5 322 -20z m2306 -2785 c-29 -184 -56 -427 -56 -499 0 -63 -7 -80 -34
-80 -34 0 -405 58 -416 65 -18 11 -11 24 63 107 40 46 89 103 109 128 20 25
51 61 68 80 46 52 190 236 240 307 24 35 45 61 47 59 3 -2 -7 -77 -21 -167z
m-5099 -205 c145 -21 259 -56 393 -120 184 -89 178 -65 58 -202 -132 -149
-170 -196 -250 -307 -112 -156 -234 -377 -313 -570 -37 -89 -110 -314 -121
-372 -3 -18 -10 -33 -14 -33 -19 0 -199 74 -269 110 -324 169 -559 566 -538
910 15 237 92 368 278 472 196 109 500 153 776 112z m756 -352 c89 -73 501
-401 780 -621 114 -90 210 -167 212 -171 3 -4 -66 -38 -153 -75 -86 -37 -179
-78 -207 -92 -71 -35 -428 -183 -570 -237 -225 -84 -401 -116 -632 -116 -128
0 -315 19 -330 33 -4 5 54 156 120 315 100 235 283 537 458 753 75 93 236 269
246 269 3 0 37 -26 76 -58z m3481 -30 c-111 -98 -373 -241 -529 -288 -73 -22
-111 -28 -200 -28 -125 -1 -168 11 -191 55 -21 42 -9 73 50 127 39 35 70 53
122 69 185 59 284 78 492 93 306 22 312 21 256 -28z m1161 -1534 c70 -119 137
-208 148 -201 6 3 7 1 3 -6 -9 -14 12 -43 25 -35 5 3 6 -1 3 -9 -3 -9 6 -24
22 -36 15 -11 23 -21 19 -21 -4 0 -2 -7 5 -15 13 -16 9 -18 -27 -15 -15 1 -23
-4 -23 -14 0 -12 11 -16 45 -16 35 0 49 -5 70 -27 25 -28 25 -28 25 -215 l0
-186 -69 -16 c-136 -31 -277 -15 -371 43 -64 39 -113 109 -141 200 -21 65 -24
96 -23 216 1 158 16 217 79 312 31 47 124 123 150 123 6 0 32 -37 60 -82z
m3685 -295 l-1 -378 -27 31 c-15 17 -40 46 -56 65 -16 19 -52 59 -80 89 -127
137 -231 253 -242 269 -13 18 -15 17 101 89 28 17 55 35 60 40 6 4 17 11 25
15 8 3 60 40 115 81 55 41 101 75 103 75 1 1 2 -169 2 -376z m-1035 -250 c-49
-166 -145 -249 -317 -273 -141 -20 -278 19 -358 101 -58 60 -66 77 -38 83 13
2 59 11 103 20 44 8 114 20 155 26 151 23 450 105 460 125 13 29 9 -33 -5 -82z
m-1823 -33 c57 -11 135 -27 173 -36 83 -18 372 -47 385 -39 6 4 10 1 10 -6 0
-8 5 -7 17 2 30 25 -4 -27 -43 -67 -124 -124 -423 -130 -555 -12 -35 31 -85
98 -91 123 -3 11 -9 28 -13 38 -9 21 -8 21 117 -3z"/>
<path d="M5525 5689 c-4 -6 -5 -12 -2 -15 2 -3 7 2 10 11 7 17 1 20 -8 4z"/>
<path d="M5681 1418 c-5 -13 -100 -225 -211 -473 -111 -247 -204 -456 -207
-463 -3 -7 3 -12 15 -12 15 0 31 25 72 118 29 64 68 150 86 190 l33 72 184 0
184 0 33 -77 c18 -43 55 -127 81 -188 l48 -110 61 -3 c33 -2 60 0 60 3 0 3
-18 44 -39 92 -21 49 -114 265 -207 481 -92 215 -171 392 -176 392 -5 0 -12
-10 -17 -22z m59 -339 c45 -105 80 -193 77 -195 -2 -3 -78 -3 -169 -2 l-164 3
85 193 c47 105 86 192 87 192 1 0 39 -86 84 -191z"/>
<path d="M1070 950 l0 -480 162 0 c195 0 266 11 344 54 84 47 117 97 122 186
5 81 -9 129 -52 178 -31 35 -120 82 -156 82 -11 0 -20 5 -20 10 0 6 6 10 13
10 19 0 89 39 119 67 73 69 88 201 30 272 -61 76 -164 101 -412 101 l-150 0 0
-480z m383 416 c66 -32 97 -83 97 -159 0 -141 -98 -217 -280 -217 l-90 0 0
206 0 207 109 -5 c92 -4 117 -8 164 -32z m-67 -417 c134 -23 196 -97 195 -230
-1 -94 -27 -144 -96 -181 -53 -28 -188 -52 -261 -46 l-39 3 -3 220 c-1 121 0
225 2 232 7 16 115 17 202 2z"/>
<path d="M1837 1424 c-4 -4 -7 -220 -7 -481 l0 -473 250 0 c160 0 250 4 250
10 0 6 -70 10 -190 10 l-190 0 -2 468 -3 467 -50 3 c-28 2 -54 0 -58 -4z"/>
<path d="M2397 1423 c-12 -11 -8 -654 4 -718 23 -123 94 -211 199 -243 73 -22
247 -21 310 2 104 39 168 108 195 212 20 78 23 758 3 752 -10 -4 -14 -90 -18
-369 -7 -407 -9 -425 -77 -492 -43 -44 -85 -64 -160 -78 -113 -21 -222 8 -280
74 -62 71 -66 102 -71 505 l-4 362 -47 0 c-26 0 -51 -3 -54 -7z"/>
<path d="M3270 950 l0 -480 245 0 c153 0 245 4 245 10 0 6 -74 11 -187 12
l-188 3 -3 227 -2 228 166 2 c123 2 168 6 172 16 3 9 -35 12 -167 12 l-171 0
0 210 0 210 191 0 c148 0 190 3 187 13 -4 9 -64 13 -246 15 l-242 2 0 -480z"/>
<path d="M4660 951 l0 -481 245 0 c157 0 245 4 245 10 0 6 -70 10 -190 10
l-190 0 -2 468 -3 467 -52 3 -53 3 0 -480z"/>
</g>
</svg>
